REM DIRINDEX 1\2,1\3,1\4,1\5
REM DIRNAME cjc004,folder01,folder02,folder03,folder04
TITLE ""
FILE "1Q_t_0160-0169.mp3" MP3
  TRACK 01 AUDIO
    TITLE "3:cjc004_1380"
    INDEX 01 00:00:00
  TRACK 02 AUDIO
    TITLE "0:"
    INDEX 01 00:01:07
  TRACK 03 AUDIO
    TITLE "4:cjc004_1381"
    INDEX 01 00:01:24
  TRACK 04 AUDIO
    TITLE "0:"
    INDEX 01 00:02:40
  TRACK 05 AUDIO
    TITLE "5:cjc004_1382"
    INDEX 01 00:02:73
  TRACK 06 AUDIO
    TITLE "0:"
    INDEX 01 00:08:01
  TRACK 07 AUDIO
    TITLE "3:cjc004_1383"
    INDEX 01 00:08:50
  TRACK 08 AUDIO
    TITLE "0:"
    INDEX 01 00:10:02
  TRACK 09 AUDIO
    TITLE "4:cjc004_1384"
    INDEX 01 00:10:31
  TRACK 10 AUDIO
    TITLE "0:"
    INDEX 01 00:11:58
  TRACK 11 AUDIO
    TITLE "5:cjc004_1385"
    INDEX 01 00:12:07
  TRACK 12 AUDIO
    TITLE "0:"
    INDEX 01 00:17:02
  TRACK 13 AUDIO
    TITLE "3:cjc004_1386"
    INDEX 01 00:17:63
  TRACK 14 AUDIO
    TITLE "0:"
    INDEX 01 00:18:62
  TRACK 15 AUDIO
    TITLE "4:cjc004_1387"
    INDEX 01 00:19:16
  TRACK 16 AUDIO
    TITLE "0:"
    INDEX 01 00:20:43
  TRACK 17 AUDIO
    TITLE "5:cjc004_1388"
    INDEX 01 00:20:71
  TRACK 18 AUDIO
    TITLE "0:"
    INDEX 01 00:24:47
  TRACK 19 AUDIO
    TITLE "3:cjc004_1389"
    INDEX 01 00:25:31
  TRACK 20 AUDIO
    TITLE "0:"
    INDEX 01 00:26:34
  TRACK 21 AUDIO
    TITLE "4:cjc004_1390"
    INDEX 01 00:26:50
  TRACK 22 AUDIO
    TITLE "0:"
    INDEX 01 00:27:73
  TRACK 23 AUDIO
    TITLE "5:cjc004_1391"
    INDEX 01 00:28:33
  TRACK 24 AUDIO
    TITLE "0:"
    INDEX 01 00:32:41
  TRACK 25 AUDIO
    TITLE "3:cjc004_1392"
    INDEX 01 00:33:28
  TRACK 26 AUDIO
    TITLE "0:"
    INDEX 01 00:34:36
  TRACK 27 AUDIO
    TITLE "4:cjc004_1393"
    INDEX 01 00:34:59
  TRACK 28 AUDIO
    TITLE "0:"
    INDEX 01 00:36:07
  TRACK 29 AUDIO
    TITLE "5:cjc004_1394"
    INDEX 01 00:36:35
  TRACK 30 AUDIO
    TITLE "0:"
    INDEX 01 00:41:65
  TRACK 31 AUDIO
    TITLE "3:cjc004_1395"
    INDEX 01 00:42:43
  TRACK 32 AUDIO
    TITLE "0:"
    INDEX 01 00:43:58
  TRACK 33 AUDIO
    TITLE "4:cjc004_1396"
    INDEX 01 00:44:09
  TRACK 34 AUDIO
    TITLE "0:"
    INDEX 01 00:45:28
  TRACK 35 AUDIO
    TITLE "5:cjc004_1397"
    INDEX 01 00:45:59
  TRACK 36 AUDIO
    TITLE "0:"
    INDEX 01 00:49:23
  TRACK 37 AUDIO
    TITLE "3:cjc004_1398"
    INDEX 01 00:50:03
  TRACK 38 AUDIO
    TITLE "0:"
    INDEX 01 00:51:07
  TRACK 39 AUDIO
    TITLE "4:cjc004_1399"
    INDEX 01 00:51:28
  TRACK 40 AUDIO
    TITLE "0:"
    INDEX 01 00:52:45
  TRACK 41 AUDIO
    TITLE "5:cjc004_1400"
    INDEX 01 00:53:00
  TRACK 42 AUDIO
    TITLE "0:"
    INDEX 01 00:57:27
  TRACK 43 AUDIO
    TITLE "3:cjc004_1401"
    INDEX 01 00:58:11
  TRACK 44 AUDIO
    TITLE "0:"
    INDEX 01 00:59:08
  TRACK 45 AUDIO
    TITLE "4:cjc004_1402"
    INDEX 01 00:59:36
  TRACK 46 AUDIO
    TITLE "0:"
    INDEX 01 01:00:43
  TRACK 47 AUDIO
    TITLE "5:cjc004_1403"
    INDEX 01 01:00:74
  TRACK 48 AUDIO
    TITLE "0:"
    INDEX 01 01:06:00
  TRACK 49 AUDIO
    TITLE "3:cjc004_1404"
    INDEX 01 01:06:57
  TRACK 50 AUDIO
    TITLE "0:"
    INDEX 01 01:07:49
  TRACK 51 AUDIO
    TITLE "4:cjc004_1405"
    INDEX 01 01:07:74
  TRACK 52 AUDIO
    TITLE "0:"
    INDEX 01 01:09:14
  TRACK 53 AUDIO
    TITLE "5:cjc004_1406"
    INDEX 01 01:09:44
  TRACK 54 AUDIO
    TITLE "0:"
    INDEX 01 01:13:57
  TRACK 55 AUDIO
    TITLE "3:cjc004_1407"
    INDEX 01 01:14:43
  TRACK 56 AUDIO
    TITLE "0:"
    INDEX 01 01:15:52
  TRACK 57 AUDIO
    TITLE "4:cjc004_1408"
    INDEX 01 01:15:70
  TRACK 58 AUDIO
    TITLE "0:"
    INDEX 01 01:17:69
  TRACK 59 AUDIO
    TITLE "5:cjc004_1409"
    INDEX 01 01:18:25
  TRACK 60 AUDIO
    TITLE "0:"
    INDEX 01 01:23:15
